<?xml version="1.0" encoding="UTF-8"?>
<svg id="Layer_1" data-name="Layer 1" xmlns="http://www.w3.org/2000/svg" viewBox="0 0 578.59 32.93">
  <defs>
    <style>
      .cls-1, .cls-2 {
        stroke-width: 0px;
      }

      .cls-1, .cls-3 {
        fill: none;
      }

      .cls-2 {
        fill: #707070;
      }

      .cls-3 {
        stroke: #656c11;
      }
    </style>
  </defs>
  <g id="Polygon_9" data-name="Polygon 9">
    <path class="cls-1" d="M133.99,15.28c.52.17.81.74.64,1.26-.1.3-.34.54-.64.64l-10.12,3.37c-.3.1-.53.33-.63.63l-3.37,10.12c-.17.52-.74.81-1.26.64-.3-.1-.54-.34-.64-.64l-3.37-10.12c-.1-.3-.33-.53-.63-.63l-10.12-3.37c-.52-.17-.81-.74-.64-1.26.1-.3.34-.54.64-.64l10.12-3.36c.3-.1.53-.33.63-.63l3.37-10.12c.17-.52.74-.81,1.26-.64.3.1.54.34.64.64l3.36,10.12c.1.3.33.53.63.63l10.12,3.37Z"/>
    <path class="cls-2" d="M133.67,16.23l-10.12-3.37c-.59-.2-1.07-.67-1.26-1.26l-3.37-10.12-3.37,10.12c-.2.59-.67,1.07-1.26,1.26l-10.12,3.37,10.12,3.37c.59.2,1.07.67,1.26,1.26l3.37,10.12,3.37-10.12c.2-.59.67-1.07,1.26-1.26l10.12-3.37M134.67,16.23c0,.4-.23.8-.68.95l-10.12,3.37c-.3.1-.53.33-.63.63l-3.37,10.12c-.3.91-1.59.91-1.9,0l-3.37-10.12c-.1-.3-.33-.53-.63-.63l-10.12-3.37c-.91-.3-.91-1.59,0-1.9l10.12-3.37c.3-.1.53-.33.63-.63l3.37-10.12c.3-.91,1.59-.91,1.9,0l3.37,10.12c.1.3.33.53.63.63l10.12,3.37c.46.15.68.55.68.95Z"/>
  </g>
  <g id="Polygon_10" data-name="Polygon 10">
    <path class="cls-1" d="M79.69,15.75c.52.17.81.74.64,1.26-.1.3-.34.54-.64.64l-10.47,3.49c-.3.1-.53.33-.63.63l-3.49,10.47c-.17.52-.74.81-1.26.64-.3-.1-.54-.34-.64-.64l-3.49-10.47c-.1-.3-.33-.53-.63-.63l-10.47-3.49c-.52-.17-.81-.74-.64-1.26.1-.3.34-.54.64-.64l10.47-3.49c.3-.1.53-.33.63-.63l3.49-10.47c.17-.52.74-.81,1.26-.64.3.1.54.34.64.64l3.49,10.47c.1.3.33.53.63.63l10.47,3.49Z"/>
    <path class="cls-2" d="M79.37,16.7l-10.47-3.49c-.59-.2-1.07-.67-1.26-1.26l-3.49-10.47-3.49,10.47c-.2.59-.67,1.07-1.26,1.26l-10.47,3.49,10.47,3.49c.59.2,1.07.67,1.26,1.26l3.49,10.47,3.49-10.47c.2-.59.67-1.07,1.26-1.26l10.47-3.49M80.37,16.7c0,.4-.23.8-.68.95l-10.47,3.49c-.3.1-.53.33-.63.63l-3.49,10.47c-.3.91-1.59.91-1.9,0l-3.49-10.47c-.1-.3-.33-.53-.63-.63l-10.47-3.49c-.91-.3-.91-1.59,0-1.9l10.47-3.49c.3-.1.53-.33.63-.63l3.49-10.47c.3-.91,1.59-.91,1.9,0l3.49,10.47c.1.3.33.53.63.63l10.47,3.49c.46.15.68.55.68.95Z"/>
  </g>
  <g id="Polygon_11" data-name="Polygon 11">
    <path class="cls-1" d="M30.83,15.28c.52.17.81.74.64,1.26-.1.3-.34.54-.64.64l-10.12,3.37c-.3.1-.53.33-.63.63l-3.37,10.12c-.17.52-.74.81-1.26.64-.3-.1-.54-.34-.64-.64l-3.37-10.12c-.1-.3-.33-.53-.63-.63L.69,17.18c-.52-.17-.81-.74-.64-1.26.1-.3.34-.54.64-.64l10.12-3.36c.3-.1.53-.33.63-.63L14.81,1.16c.17-.52.74-.81,1.26-.64.3.1.54.34.64.64l3.36,10.12c.1.3.33.53.63.63l10.12,3.37Z"/>
    <path class="cls-2" d="M30.51,16.23l-10.12-3.37c-.59-.2-1.07-.67-1.26-1.26L15.76,1.48l-3.37,10.12c-.2.59-.67,1.07-1.26,1.26l-10.12,3.37,10.12,3.37c.59.2,1.07.67,1.26,1.26l3.37,10.12,3.37-10.12c.2-.59.67-1.07,1.26-1.26l10.12-3.37M31.51,16.23c0,.4-.23.8-.68.95l-10.12,3.37c-.3.1-.53.33-.63.63l-3.37,10.12c-.3.91-1.59.91-1.9,0l-3.37-10.12c-.1-.3-.33-.53-.63-.63L.69,17.18c-.91-.3-.91-1.59,0-1.9l10.12-3.37c.3-.1.53-.33.63-.63L14.81,1.16c.3-.91,1.59-.91,1.9,0l3.37,10.12c.1.3.33.53.63.63l10.12,3.37c.46.15.68.55.68.95Z"/>
  </g>
  <g id="Polygon_12" data-name="Polygon 12">
    <path class="cls-1" d="M577.9,14.81c.52.17.81.74.64,1.26-.1.3-.34.54-.64.64l-10.12,3.37c-.3.1-.53.33-.63.63l-3.37,10.12c-.17.52-.74.81-1.26.64-.3-.1-.54-.34-.64-.64l-3.37-10.12c-.1-.3-.33-.53-.63-.63l-10.12-3.37c-.52-.17-.81-.74-.64-1.26.1-.3.34-.54.64-.64l10.12-3.36c.3-.1.53-.33.63-.63l3.37-10.12c.17-.52.74-.81,1.26-.64.3.1.54.34.64.64l3.36,10.12c.1.3.33.53.63.63l10.12,3.37Z"/>
    <path class="cls-2" d="M577.58,15.76l-10.12-3.37c-.59-.2-1.07-.67-1.26-1.26l-3.37-10.12-3.37,10.12c-.2.59-.67,1.07-1.26,1.26l-10.12,3.37,10.12,3.37c.59.2,1.07.67,1.26,1.26l3.37,10.12,3.37-10.12c.2-.59.67-1.07,1.26-1.26l10.12-3.37M578.58,15.76c0,.4-.23.8-.68.95l-10.12,3.37c-.3.1-.53.33-.63.63l-3.37,10.12c-.3.91-1.59.91-1.9,0l-3.37-10.12c-.1-.3-.33-.53-.63-.63l-10.12-3.37c-.91-.3-.91-1.59,0-1.9l10.12-3.37c.3-.1.53-.33.63-.63l3.37-10.12c.3-.91,1.59-.91,1.9,0l3.37,10.12c.1.3.33.53.63.63l10.12,3.37c.46.15.68.55.68.95Z"/>
  </g>
  <g id="Polygon_13" data-name="Polygon 13">
    <path class="cls-1" d="M528.75,15.28c.52.17.81.74.64,1.26-.1.3-.34.54-.64.64l-10.47,3.49c-.3.1-.53.33-.63.63l-3.49,10.47c-.17.52-.74.81-1.26.64-.3-.1-.54-.34-.64-.64l-3.49-10.47c-.1-.3-.33-.53-.63-.63l-10.47-3.49c-.52-.17-.81-.74-.64-1.26.1-.3.34-.54.64-.64l10.47-3.49c.3-.1.53-.33.63-.63l3.49-10.47c.17-.52.74-.81,1.26-.64.3.1.54.34.64.64l3.49,10.47c.1.3.33.53.63.63l10.47,3.49Z"/>
    <path class="cls-2" d="M528.43,16.23l-10.47-3.49c-.59-.2-1.07-.67-1.26-1.26l-3.49-10.47-3.49,10.47c-.2.59-.67,1.07-1.26,1.26l-10.47,3.49,10.47,3.49c.59.2,1.07.67,1.26,1.26l3.49,10.47,3.49-10.47c.2-.59.67-1.07,1.26-1.26l10.47-3.49M529.43,16.23c0,.4-.23.8-.68.95l-10.47,3.49c-.3.1-.53.33-.63.63l-3.49,10.47c-.3.91-1.59.91-1.9,0l-3.49-10.47c-.1-.3-.33-.53-.63-.63l-10.47-3.49c-.91-.3-.91-1.59,0-1.9l10.47-3.49c.3-.1.53-.33.63-.63l3.49-10.47c.3-.91,1.59-.91,1.9,0l3.49,10.47c.1.3.33.53.63.63l10.47,3.49c.46.15.68.55.68.95Z"/>
  </g>
  <g id="Polygon_14" data-name="Polygon 14">
    <path class="cls-1" d="M474.74,14.81c.52.17.81.74.64,1.26-.1.3-.34.54-.64.64l-10.12,3.37c-.3.1-.53.33-.63.63l-3.37,10.12c-.17.52-.74.81-1.26.64-.3-.1-.54-.34-.64-.64l-3.37-10.12c-.1-.3-.33-.53-.63-.63l-10.12-3.37c-.52-.17-.81-.74-.64-1.26.1-.3.34-.54.64-.64l10.12-3.36c.3-.1.53-.33.63-.63l3.37-10.12c.17-.52.74-.81,1.26-.64.3.1.54.34.64.64l3.36,10.12c.1.3.33.53.63.63l10.12,3.37Z"/>
    <path class="cls-2" d="M474.42,15.76l-10.12-3.37c-.59-.2-1.07-.67-1.26-1.26l-3.37-10.12-3.37,10.12c-.2.59-.67,1.07-1.26,1.26l-10.12,3.37,10.12,3.37c.59.2,1.07.67,1.26,1.26l3.37,10.12,3.37-10.12c.2-.59.67-1.07,1.26-1.26l10.12-3.37M475.42,15.76c0,.4-.23.8-.68.95l-10.12,3.37c-.3.1-.53.33-.63.63l-3.37,10.12c-.3.91-1.59.91-1.9,0l-3.37-10.12c-.1-.3-.33-.53-.63-.63l-10.12-3.37c-.91-.3-.91-1.59,0-1.9l10.12-3.37c.3-.1.53-.33.63-.63l3.37-10.12c.3-.91,1.59-.91,1.9,0l3.37,10.12c.1.3.33.53.63.63l10.12,3.37c.46.15.68.55.68.95Z"/>
  </g>
  <line id="Line_16" data-name="Line 16" class="cls-3" x1="417.29" y1="16.7" x2="162.29" y2="17.84"/>
</svg>