<?xml version="1.0" encoding="UTF-8"?>
<svg id="Layer_1" data-name="Layer 1" xmlns="http://www.w3.org/2000/svg" xmlns:xlink="http://www.w3.org/1999/xlink" viewBox="0 0 387.09 360.82">
  <defs>
    <style>
      .cls-1 {
        fill: url(#linear-gradient-5);
      }

      .cls-1, .cls-2, .cls-3, .cls-4, .cls-5, .cls-6 {
        opacity: .75;
      }

      .cls-1, .cls-2, .cls-3, .cls-4, .cls-5, .cls-6, .cls-7, .cls-8 {
        stroke-width: 0px;
      }

      .cls-2 {
        fill: url(#linear-gradient-3);
      }

      .cls-3 {
        fill: url(#linear-gradient-4);
      }

      .cls-4 {
        fill: url(#linear-gradient-2);
      }

      .cls-5 {
        fill: url(#linear-gradient-6);
      }

      .cls-6 {
        fill: url(#linear-gradient);
      }

      .cls-9 {
        fill: #749a94;
        font-family: MontserratRoman-Regular, Montserrat;
        font-size: 98.02px;
        font-variation-settings: 'wght' 400;
      }

      .cls-10 {
        fill: #000;
        font-family: MontserratRoman-Light, Montserrat;
        font-size: 43.57px;
        font-variation-settings: 'wght' 300;
        font-weight: 300;
      }

      .cls-7 {
        fill: url(#linear-gradient-8);
      }

      .cls-7, .cls-8 {
        opacity: .5;
      }

      .cls-8 {
        fill: url(#linear-gradient-7);
      }
    </style>
    <linearGradient id="linear-gradient" x1="188.2" y1="41.9" x2="268.08" y2="41.9" gradientUnits="userSpaceOnUse">
      <stop offset="0" stop-color="#aeb486"/>
      <stop offset="1" stop-color="#749a94"/>
    </linearGradient>
    <linearGradient id="linear-gradient-2" x1="103.51" y1="41.9" x2="183.39" y2="41.9" xlink:href="#linear-gradient"/>
    <linearGradient id="linear-gradient-3" x1="103.51" y1="129.16" x2="183.4" y2="129.16" xlink:href="#linear-gradient"/>
    <linearGradient id="linear-gradient-4" x1="188.2" y1="129.14" x2="268.08" y2="129.14" xlink:href="#linear-gradient"/>
    <linearGradient id="linear-gradient-5" x1="192.47" y1="78.02" x2="262.05" y2="78.02" xlink:href="#linear-gradient"/>
    <linearGradient id="linear-gradient-6" x1="107.35" y1="80.13" x2="179.56" y2="80.13" xlink:href="#linear-gradient"/>
    <linearGradient id="linear-gradient-7" x1="505.48" y1="635.27" x2="580.77" y2="635.27" gradientTransform="translate(782.94 -542.42) rotate(86.17)" xlink:href="#linear-gradient"/>
    <linearGradient id="linear-gradient-8" x1="675.53" y1="-463.82" x2="750.83" y2="-463.82" gradientTransform="translate(712.54 797.74) rotate(-95.25)" xlink:href="#linear-gradient"/>
  </defs>
  <text class="cls-9" transform="translate(0 289.4)"><tspan x="0" y="0">NKONG</tspan></text>
  <text class="cls-10" transform="translate(89.23 349.54)"><tspan x="0" y="0">DESIGNS</tspan></text>
  <path class="cls-6" d="M188.86,29.45c-.86,44.17-1.6,48.22,2.71,52.06,4.87,4.34,8.57,1.65,48.74-1.05,18.69-1.25,27.07-1.29,27.73-4.37.77-3.56-9.11-9.61-18.44-12.47-20.4-6.27-32.83,4.28-39.05-2.17-6.82-7.07,6.75-21.17.48-40.8-3.79-11.84-13.63-22.06-18.37-20.49-3.4,1.13-3.38,8.07-3.8,29.29Z"/>
  <path class="cls-4" d="M182.73,29.45c.86,44.17,1.6,48.22-2.71,52.06-4.87,4.34-8.57,1.65-48.74-1.05-18.69-1.25-27.07-1.29-27.73-4.37-.77-3.56,9.11-9.61,18.44-12.47,20.4-6.27,32.83,4.28,39.05-2.17,6.82-7.07-6.75-21.17-.48-40.8,3.79-11.84,13.63-22.06,18.37-20.49,3.4,1.13,3.38,8.07,3.8,29.29Z"/>
  <path class="cls-2" d="M182.78,141.61c.81-44.17,1.55-48.22-2.77-52.06-4.87-4.34-8.58-1.64-48.74,1.1-18.69,1.27-27.07,1.32-27.73,4.4-.76,3.56,9.12,9.6,18.45,12.45,20.4,6.25,32.82-4.32,39.05,2.13,6.83,7.07-6.73,21.18-.43,40.8,3.8,11.83,13.66,22.04,18.39,20.47,3.4-1.13,3.38-8.07,3.77-29.29Z"/>
  <path class="cls-3" d="M188.9,141.6c-.91-44.17-1.65-48.21,2.66-52.07,4.87-4.35,8.57-1.66,48.74,1,18.69,1.24,27.07,1.26,27.74,4.34.77,3.56-9.1,9.61-18.43,12.49-20.39,6.29-32.83-4.25-39.05,2.21-6.81,7.08,6.77,21.17.52,40.8-3.77,11.84-13.61,22.07-18.35,20.5-3.4-1.13-3.39-8.07-3.83-29.28Z"/>
  <path class="cls-1" d="M234.07,43.54c-31.88,33.09-43.1,36.43-41.44,45.04,1.88,9.78,16.67,7.07,44.88,27.33,13.15,9.45,20.46,17.6,23.39,15.52,2.97-2.11-.22-13.23-5.16-21.66-10.8-18.41-27.09-19.03-27.31-27.99-.25-9.82,19.29-11.04,27.93-29.75,5.21-11.28,4.86-25.47.3-27.52-3.88-1.74-9.77,5.71-22.59,19.02Z"/>
  <path class="cls-5" d="M133.86,44.6c33.42,31.5,47.01,34.56,45.61,43.64-1.54,10.03-18.27,7.41-45.7,28.81-12.54,9.78-19.58,18.56-22.65,16.59-3.07-1.97-.39-13.23,4.15-21.87,9.93-18.89,26.18-20.26,25.99-29.22-.21-9.82-19.78-10.14-29.27-28.42-5.73-11.03-6.03-25.22-1.58-27.47,3.9-1.97,10.35,5.61,23.45,17.95Z"/>
  <path class="cls-8" d="M225.12,31.23c-29.19,35.45-31.34,49.21-40.5,48.42-10.84-.93-9.12-20.29-31.8-43.67-15.27-15.74-29.64-20.95-28.06-25.18,1.49-3.99,16.23-4.57,28.73.87,21.14,9.2,24.08,30.47,34.26,29.47,9.69-.95,8.65-20.32,26.4-31.11,10.62-6.45,24.76-7.71,27.31-3.41,2.23,3.75-4.9,10.7-16.35,24.59Z"/>
  <path class="cls-7" d="M145.96,141.72c28.31-36.16,30.11-49.97,39.29-49.41,10.86.66,9.62,20.06,32.87,42.87,15.66,15.36,30.15,20.21,28.67,24.48-1.4,4.03-16.11,4.97-28.75-.16-21.4-8.69-24.09-29.49-34.98-28.62-10.02.8-9.62,18.58-28.85,30.29-9.29,5.65-21.56,8.93-23.99,5.54-2.27-3.17,4.85-11.09,15.73-24.99Z"/>
</svg>