<?xml version="1.0" encoding="UTF-8"?>
<svg id="Layer_1" data-name="Layer 1" xmlns="http://www.w3.org/2000/svg" xmlns:xlink="http://www.w3.org/1999/xlink" version="1.1" viewBox="0 0 250 250">
  <defs>
    <style>
      .cls-1 {
        fill: url(#linear-gradient-5);
      }

      .cls-1, .cls-2, .cls-3, .cls-4, .cls-5, .cls-6, .cls-7 {
        opacity: .75;
      }

      .cls-1, .cls-2, .cls-3, .cls-4, .cls-5, .cls-6, .cls-7, .cls-8, .cls-9, .cls-10, .cls-11 {
        stroke-width: 0px;
      }

      .cls-2 {
        fill: url(#linear-gradient-3);
      }

      .cls-3 {
        fill: url(#linear-gradient-4);
      }

      .cls-4 {
        fill: url(#linear-gradient-2);
      }

      .cls-5 {
        fill: url(#linear-gradient-6);
      }

      .cls-6 {
        fill: url(#linear-gradient);
      }

      .cls-7, .cls-8 {
        fill: #749a94;
      }

      .cls-9 {
        fill: url(#linear-gradient-8);
      }

      .cls-9, .cls-10 {
        opacity: .5;
      }

      .cls-10 {
        fill: url(#linear-gradient-7);
      }

      .cls-11 {
        fill: #fff;
      }
    </style>
    <linearGradient id="linear-gradient" x1="124.16" y1="71.76" x2="156.17" y2="71.76" gradientUnits="userSpaceOnUse">
      <stop offset="0" stop-color="#aeb486"/>
      <stop offset="1" stop-color="#749a94"/>
    </linearGradient>
    <linearGradient id="linear-gradient-2" x1="90.23" y1="71.76" x2="122.24" y2="71.76" xlink:href="#linear-gradient"/>
    <linearGradient id="linear-gradient-3" x1="90.23" y1="106.73" x2="122.24" y2="106.73" xlink:href="#linear-gradient"/>
    <linearGradient id="linear-gradient-4" x1="124.17" y1="106.72" x2="156.17" y2="106.72" xlink:href="#linear-gradient"/>
    <linearGradient id="linear-gradient-5" x1="125.88" y1="86.23" x2="153.76" y2="86.23" xlink:href="#linear-gradient"/>
    <linearGradient id="linear-gradient-6" x1="91.77" y1="87.08" x2="120.7" y2="87.08" xlink:href="#linear-gradient"/>
    <linearGradient id="linear-gradient-7" x1="541.3" y1="591.22" x2="571.47" y2="591.22" gradientTransform="translate(675.74 -522.89) rotate(86.17)" xlink:href="#linear-gradient"/>
    <linearGradient id="linear-gradient-8" x1="609.4" y1="-511.93" x2="639.57" y2="-511.93" gradientTransform="translate(689.98 682.07) rotate(-95.25)" xlink:href="#linear-gradient"/>
  </defs>
  <g>
    <path class="cls-8" d="M53.23,170.93v-27.49h2.4l18.97,23.88h-1.26v-23.88h2.87v27.49h-2.4l-18.93-23.88h1.26v23.88h-2.91Z"/>
    <path class="cls-8" d="M85.16,170.93v-27.49h2.91v27.49h-2.91ZM87.68,164.1l-.12-3.54,16.65-17.12h3.34l-12.14,12.73-1.65,1.77-6.09,6.17ZM104.92,170.93l-11.86-13.67,1.96-2.12,13.35,15.79h-3.46Z"/>
    <path class="cls-8" d="M125.11,171.17c-2.07,0-3.99-.35-5.75-1.04-1.77-.69-3.3-1.68-4.6-2.95-1.3-1.27-2.3-2.75-3.02-4.44-.72-1.69-1.08-3.54-1.08-5.56s.36-3.87,1.08-5.56c.72-1.69,1.73-3.17,3.02-4.44,1.3-1.27,2.82-2.25,4.58-2.95,1.75-.69,3.68-1.04,5.77-1.04s3.98.35,5.73,1.04c1.75.69,3.28,1.67,4.58,2.93,1.3,1.26,2.3,2.74,3.02,4.44.72,1.7,1.08,3.56,1.08,5.58s-.36,3.88-1.08,5.58c-.72,1.7-1.73,3.18-3.02,4.44-1.3,1.26-2.82,2.23-4.58,2.93-1.75.69-3.67,1.04-5.73,1.04ZM125.11,168.58c1.65,0,3.17-.28,4.58-.84,1.4-.56,2.62-1.36,3.65-2.4,1.03-1.03,1.84-2.24,2.42-3.61.58-1.38.86-2.89.86-4.54s-.29-3.16-.86-4.54-1.38-2.58-2.42-3.61c-1.04-1.03-2.25-1.83-3.65-2.4-1.4-.56-2.93-.84-4.58-.84s-3.18.28-4.6.84c-1.41.56-2.65,1.36-3.69,2.4-1.05,1.03-1.86,2.24-2.44,3.61-.58,1.38-.86,2.89-.86,4.54s.29,3.13.86,4.52c.58,1.39,1.39,2.6,2.44,3.63,1.05,1.03,2.28,1.83,3.69,2.4,1.41.56,2.95.84,4.6.84Z"/>
    <path class="cls-8" d="M146.04,170.93v-27.49h2.4l18.97,23.88h-1.26v-23.88h2.87v27.49h-2.4l-18.93-23.88h1.26v23.88h-2.91Z"/>
    <path class="cls-8" d="M190.03,171.17c-2.09,0-4.03-.35-5.79-1.04-1.77-.69-3.3-1.67-4.6-2.93s-2.3-2.74-3.02-4.44c-.72-1.7-1.08-3.56-1.08-5.58s.36-3.87,1.08-5.58c.72-1.7,1.73-3.18,3.04-4.44s2.85-2.23,4.62-2.93c1.77-.69,3.7-1.04,5.79-1.04s4.01.33,5.75.98,3.23,1.65,4.46,2.98l-1.81,1.85c-1.15-1.15-2.42-1.98-3.81-2.47s-2.88-.75-4.48-.75c-1.7,0-3.27.28-4.69.84-1.43.56-2.67,1.36-3.73,2.4s-1.88,2.24-2.47,3.61c-.59,1.38-.88,2.89-.88,4.54s.29,3.13.88,4.52c.59,1.39,1.41,2.6,2.47,3.63s2.3,1.83,3.73,2.4c1.43.56,2.98.84,4.65.84,1.57,0,3.06-.24,4.46-.71,1.4-.47,2.69-1.27,3.87-2.4l1.65,2.2c-1.31,1.15-2.84,2.02-4.59,2.61-1.75.59-3.59.88-5.5.88ZM197.34,167.32v-10.13h2.79v10.49l-2.79-.35Z"/>
  </g>
  <g>
    <path class="cls-11" d="M86.64,195.03v-12.22h4.83c1.29,0,2.43.26,3.4.79s1.74,1.25,2.28,2.16c.54.92.81,1.97.81,3.16s-.27,2.24-.81,3.16c-.54.92-1.3,1.64-2.28,2.17-.98.52-2.11.79-3.4.79h-4.83ZM87.53,194.23h3.88c1.15,0,2.15-.23,3-.68.85-.45,1.51-1.08,1.97-1.88s.7-1.71.7-2.75-.23-1.95-.7-2.75c-.47-.8-1.12-1.42-1.97-1.88s-1.85-.68-3-.68h-3.88v10.61Z"/>
    <path class="cls-11" d="M101.95,194.23h7.54v.8h-8.43v-12.22h8.17v.8h-7.28v10.61ZM101.84,188.43h6.62v.79h-6.62v-.79Z"/>
    <path class="cls-11" d="M115.95,195.12c-.91,0-1.77-.15-2.58-.46-.81-.31-1.43-.71-1.88-1.2l.4-.66c.42.43.99.79,1.72,1.09.73.3,1.5.45,2.31.45s1.48-.11,2-.32c.52-.21.9-.5,1.15-.86.25-.36.38-.76.38-1.2,0-.52-.14-.94-.42-1.26s-.65-.56-1.1-.75c-.45-.19-.95-.34-1.48-.47s-1.08-.26-1.62-.41c-.55-.15-1.05-.33-1.5-.57-.45-.23-.82-.55-1.09-.95-.27-.4-.41-.92-.41-1.56,0-.58.15-1.12.45-1.61.3-.49.77-.88,1.41-1.19.64-.3,1.46-.45,2.46-.45.67,0,1.34.1,2,.3.66.2,1.22.47,1.68.8l-.33.72c-.51-.35-1.06-.61-1.65-.78-.59-.17-1.15-.25-1.7-.25-.78,0-1.43.11-1.94.33-.51.22-.89.51-1.13.88-.24.37-.37.78-.37,1.23,0,.52.14.94.41,1.26s.64.56,1.09.75c.45.19.95.34,1.5.47.55.13,1.09.26,1.62.41.54.15,1.03.33,1.48.57.45.23.82.55,1.1.94.28.4.42.91.42,1.54,0,.57-.16,1.1-.47,1.6-.31.5-.79.89-1.44,1.19-.65.3-1.48.44-2.49.44Z"/>
    <path class="cls-11" d="M123.37,195.03v-12.22h.89v12.22h-.89Z"/>
    <path class="cls-11" d="M133.73,195.12c-.92,0-1.77-.15-2.55-.46-.78-.31-1.46-.74-2.04-1.3-.58-.56-1.02-1.21-1.33-1.96s-.47-1.57-.47-2.47.16-1.72.47-2.47c.31-.75.76-1.41,1.34-1.96s1.26-.99,2.03-1.3,1.63-.46,2.56-.46,1.71.14,2.46.42c.76.28,1.4.7,1.94,1.26l-.56.59c-.54-.52-1.12-.9-1.76-1.12-.63-.22-1.32-.33-2.07-.33-.79,0-1.52.13-2.2.4-.67.27-1.26.65-1.76,1.13-.5.49-.89,1.06-1.16,1.71s-.41,1.36-.41,2.13.14,1.48.41,2.13c.27.65.66,1.22,1.16,1.71.5.49,1.09.87,1.76,1.13.68.27,1.41.4,2.2.4.72,0,1.41-.11,2.05-.33.65-.22,1.24-.59,1.77-1.1l.51.68c-.55.52-1.2.92-1.96,1.18-.76.26-1.56.39-2.4.39ZM137.24,193.46v-4.49h.86v4.57l-.86-.09Z"/>
    <path class="cls-11" d="M142.01,195.03v-12.22h.75l8.71,11.12h-.4v-11.12h.89v12.22h-.73l-8.73-11.12h.4v11.12h-.89Z"/>
    <path class="cls-11" d="M159.43,195.12c-.91,0-1.77-.15-2.58-.46s-1.43-.71-1.88-1.2l.4-.66c.42.43.99.79,1.72,1.09.73.3,1.5.45,2.31.45s1.48-.11,2-.32c.52-.21.9-.5,1.15-.86.25-.36.38-.76.38-1.2,0-.52-.14-.94-.42-1.26s-.65-.56-1.1-.75c-.45-.19-.95-.34-1.48-.47s-1.08-.26-1.62-.41-1.05-.33-1.5-.57c-.45-.23-.82-.55-1.09-.95s-.41-.92-.41-1.56c0-.58.15-1.12.45-1.61.3-.49.77-.88,1.41-1.19.64-.3,1.46-.45,2.46-.45.67,0,1.34.1,2,.3s1.22.47,1.68.8l-.33.72c-.51-.35-1.06-.61-1.65-.78s-1.16-.25-1.7-.25c-.78,0-1.43.11-1.94.33-.51.22-.89.51-1.13.88-.24.37-.37.78-.37,1.23,0,.52.14.94.41,1.26s.64.56,1.09.75c.45.19.95.34,1.5.47s1.09.26,1.62.41,1.03.33,1.48.57c.45.23.82.55,1.1.94.28.4.42.91.42,1.54,0,.57-.16,1.1-.47,1.6-.31.5-.79.89-1.44,1.19-.65.3-1.47.44-2.49.44Z"/>
  </g>
  <path class="cls-6" d="M124.43,66.77c-.34,17.7-.64,19.32,1.09,20.86,1.95,1.74,3.44.66,19.53-.42,7.49-.5,10.85-.52,11.11-1.75.31-1.43-3.65-3.85-7.39-5-8.17-2.51-13.15,1.72-15.65-.87-2.73-2.83,2.71-8.48.19-16.35-1.52-4.74-5.46-8.84-7.36-8.21-1.36.45-1.36,3.23-1.52,11.73Z"/>
  <path class="cls-4" d="M121.97,66.77c.34,17.7.64,19.32-1.09,20.86-1.95,1.74-3.44.66-19.53-.42-7.49-.5-10.85-.52-11.11-1.75-.31-1.43,3.65-3.85,7.39-5,8.17-2.51,13.15,1.72,15.65-.87,2.73-2.83-2.71-8.48-.19-16.35,1.52-4.74,5.46-8.84,7.36-8.21,1.36.45,1.36,3.23,1.52,11.73Z"/>
  <path class="cls-2" d="M121.99,111.71c.33-17.7.62-19.32-1.11-20.86-1.95-1.74-3.44-.66-19.53.44-7.49.51-10.85.53-11.11,1.76-.31,1.43,3.65,3.85,7.39,4.99,8.18,2.5,13.15-1.73,15.65.85,2.74,2.83-2.7,8.49-.17,16.35,1.52,4.74,5.47,8.83,7.37,8.2,1.36-.45,1.35-3.24,1.51-11.74Z"/>
  <path class="cls-3" d="M124.45,111.71c-.36-17.7-.66-19.32,1.07-20.86,1.95-1.74,3.43-.66,19.53.4,7.49.5,10.85.5,11.11,1.74.31,1.43-3.65,3.85-7.38,5.01-8.17,2.52-13.15-1.7-15.65.89-2.73,2.84,2.71,8.48.21,16.35-1.51,4.74-5.45,8.84-7.35,8.22-1.36-.45-1.36-3.23-1.53-11.73Z"/>
  <path class="cls-1" d="M142.55,72.42c-12.78,13.26-17.27,14.6-16.61,18.05.75,3.92,6.68,2.83,17.98,10.95,5.27,3.79,8.2,7.05,9.37,6.22,1.19-.84-.09-5.3-2.07-8.68-4.33-7.38-10.85-7.63-10.94-11.22-.1-3.94,7.73-4.42,11.19-11.92,2.09-4.52,1.95-10.21.12-11.03-1.55-.7-3.92,2.29-9.05,7.62Z"/>
  <path class="cls-5" d="M102.39,72.84c13.39,12.62,18.83,13.85,18.27,17.49-.62,4.02-7.32,2.97-18.31,11.54-5.02,3.92-7.85,7.44-9.08,6.65-1.23-.79-.16-5.3,1.66-8.76,3.98-7.57,10.49-8.12,10.41-11.71-.08-3.94-7.92-4.06-11.73-11.39-2.29-4.42-2.42-10.11-.63-11.01,1.56-.79,4.15,2.25,9.39,7.19Z"/>
  <path class="cls-7" d="M135.37,82.91"/>
  <path class="cls-10" d="M138.96,67.48c-11.7,14.2-12.56,19.72-16.23,19.4-4.34-.37-3.65-8.13-12.74-17.5-6.12-6.31-11.88-8.39-11.24-10.09.6-1.6,6.5-1.83,11.51.35,8.47,3.69,9.65,12.21,13.73,11.81,3.88-.38,3.46-8.14,10.58-12.46,4.26-2.59,9.92-3.09,10.94-1.37.89,1.5-1.96,4.29-6.55,9.85Z"/>
  <path class="cls-9" d="M107.24,111.76c11.34-14.49,12.07-20.02,15.74-19.8,4.35.27,3.85,8.04,13.17,17.18,6.27,6.15,12.08,8.1,11.49,9.81-.56,1.61-6.46,1.99-11.52-.06-8.58-3.48-9.65-11.82-14.02-11.47-4.02.32-3.85,7.45-11.56,12.14-3.72,2.27-8.64,3.58-9.61,2.22-.91-1.27,1.94-4.44,6.3-10.01Z"/>
</svg>