<?xml version="1.0" encoding="UTF-8"?>
<svg id="Layer_1" data-name="Layer 1" xmlns="http://www.w3.org/2000/svg" version="1.1" viewBox="0 0 250 250">
  <defs>
    <style>
      .cls-1 {
        fill: none;
      }

      .cls-1, .cls-2 {
        stroke-width: 0px;
      }

      .cls-2 {
        fill: #120033;
      }
    </style>
  </defs>
  <g id="Polygon_12" data-name="Polygon 12">
    <path class="cls-1" d="M133.36,124.05c.52.17.81.74.64,1.26-.1.3-.34.54-.64.64l-5.08,1.69c-.3.1-.53.33-.63.63l-1.69,5.08c-.17.52-.74.81-1.26.64-.3-.1-.54-.34-.64-.64l-1.69-5.08c-.1-.3-.33-.53-.63-.63l-5.08-1.69c-.52-.17-.81-.74-.64-1.26.1-.3.34-.54.64-.64l5.08-1.69c.3-.1.53-.33.63-.63l1.69-5.08c.17-.52.74-.81,1.26-.64.3.1.54.34.64.64l1.69,5.08c.1.3.33.53.63.63l5.08,1.69Z"/>
    <path class="cls-2" d="M133.04,125l-5.08-1.69c-.59-.2-1.07-.67-1.26-1.26l-1.69-5.08-1.69,5.08c-.2.59-.67,1.07-1.26,1.26l-5.08,1.69,5.08,1.69c.59.2,1.07.67,1.26,1.26l1.69,5.08,1.69-5.08c.2-.59.67-1.07,1.26-1.26l5.08-1.69M134.04,125c0,.4-.23.8-.68.95l-5.08,1.69c-.3.1-.53.33-.63.63l-1.69,5.08c-.3.91-1.59.91-1.9,0l-1.69-5.08c-.1-.3-.33-.53-.63-.63l-5.08-1.69c-.91-.3-.91-1.59,0-1.9l5.08-1.69c.3-.1.53-.33.63-.63l1.69-5.08c.3-.91,1.59-.91,1.9,0l1.69,5.08c.1.3.33.53.63.63l5.08,1.69c.46.15.68.55.68.95Z"/>
  </g>
</svg>